<svg version="1.1" viewBox="0.0 0.0 930.9606299212599 470.1076115485564" fill="none" stroke="none" stroke-linecap="square" stroke-miterlimit="10" xmlns:xlink="http://www.w3.org/1999/xlink" xmlns="http://www.w3.org/2000/svg"><clipPath id="p.0"><path d="m0 0l930.96063 0l0 470.1076l-930.96063 0l0 -470.1076z" clip-rule="nonzero"/></clipPath><g clip-path="url(#p.0)"><path fill="#000000" fill-opacity="0.0" d="m0 0l930.96063 0l0 470.1076l-930.96063 0z" fill-rule="evenodd"/><path fill="#000000" fill-opacity="0.0" d="m889.5735 34.973755l0 0c0 15.785774 -12.796875 28.582676 -28.582703 28.582676l0 -28.582676c0 7.892887 -6.3984375 14.291336 -14.291321 14.291336c-7.8928833 0 -14.291321 -6.398449 -14.291321 -14.291336l0 28.582676l-762.4409 0l0 0c-15.785778 0 -28.58268 12.796902 -28.58268 28.582676l0 342.99213c0 15.785797 12.796902 28.582672 28.58268 28.582672c15.785774 0 28.582672 -12.796875 28.582672 -28.582672l0 -28.582672l762.4409 0c15.785828 0 28.582703 -12.7969055 28.582703 -28.582672zm-819.6063 85.74803l0 0c15.785774 0 28.582672 -12.7969055 28.582672 -28.58268l0 0c0 -7.892891 -6.398445 -14.291336 -14.291336 -14.291336c-7.892891 0 -14.291336 6.398445 -14.291336 14.291336z" fill-rule="evenodd"/><path fill="#000000" fill-opacity="0.0" d="m69.96719 120.72179l0 0c15.785774 0 28.582672 -12.7969055 28.582672 -28.58268l0 0c0 -7.892891 -6.398445 -14.291336 -14.291336 -14.291336c-7.892891 0 -14.291336 6.398445 -14.291336 14.291336zm791.02356 -57.165356c15.785828 0 28.582703 -12.796902 28.582703 -28.582676c0 -15.785778 -12.796875 -28.58268 -28.582703 -28.58268c-15.785767 0 -28.582642 12.796901 -28.582642 28.58268l0 0c0 7.892887 6.3984375 14.291336 14.291321 14.291336c7.8928833 0 14.291321 -6.398449 14.291321 -14.291336z" fill-rule="evenodd"/><path fill="#000000" fill-opacity="0.0" d="m41.384514 92.13911c0 -15.785774 12.796902 -28.582676 28.58268 -28.582676l762.4409 0l0 -28.582676l0 0c0 -15.785778 12.796875 -28.58268 28.582642 -28.58268c15.785828 0 28.582703 12.796901 28.582703 28.58268l0 342.99213c0 15.785767 -12.796875 28.582672 -28.582703 28.582672l-762.4409 0l0 28.582672c0 15.785797 -12.796898 28.582672 -28.582672 28.582672c-15.785778 0 -28.58268 -12.796875 -28.58268 -28.582672zm791.0236 -28.582676l28.582642 0c15.785828 0 28.582703 -12.796902 28.582703 -28.582676m-28.582703 28.582676l0 -28.582676c0 7.892887 -6.3984375 14.291336 -14.291321 14.291336c-7.8928833 0 -14.291321 -6.398449 -14.291321 -14.291336m-762.4409 85.74803l0 -28.58268l0 0c0 -7.892891 6.398445 -14.291336 14.291336 -14.291336c7.892891 0 14.291336 6.398445 14.291336 14.291336c0 15.785774 -12.796898 28.58268 -28.582672 28.58268c-15.785778 0 -28.58268 -12.7969055 -28.58268 -28.58268m57.16535 0l0 314.40945" fill-rule="evenodd"/><path fill="#000000" fill-opacity="0.2" d="m69.96719 120.72179l0 0c15.785774 0 28.582672 -12.7969055 28.582672 -28.58268l0 0c0 -7.892891 -6.398445 -14.291336 -14.291336 -14.291336c-7.892891 0 -14.291336 6.398445 -14.291336 14.291336zm791.02356 -57.165356c15.785828 0 28.582703 -12.796902 28.582703 -28.582676c0 -15.785778 -12.796875 -28.58268 -28.582703 -28.58268c-15.785767 0 -28.582642 12.796901 -28.582642 28.58268l0 0c0 7.892887 6.3984375 14.291336 14.291321 14.291336c7.8928833 0 14.291321 -6.398449 14.291321 -14.291336z" fill-rule="evenodd"/><path stroke="#999999" stroke-width="4.0" stroke-linejoin="round" stroke-linecap="butt" d="m41.384514 92.13911c0 -15.785774 12.796902 -28.582676 28.58268 -28.582676l762.4409 0l0 -28.582676l0 0c0 -15.785778 12.796875 -28.58268 28.582642 -28.58268c15.785828 0 28.582703 12.796901 28.582703 28.58268l0 342.99213c0 15.785767 -12.796875 28.582672 -28.582703 28.582672l-762.4409 0l0 28.582672c0 15.785797 -12.796898 28.582672 -28.582672 28.582672c-15.785778 0 -28.58268 -12.796875 -28.58268 -28.582672zm791.0236 -28.582676l28.582642 0c15.785828 0 28.582703 -12.796902 28.582703 -28.582676m-28.582703 28.582676l0 -28.582676c0 7.892887 -6.3984375 14.291336 -14.291321 14.291336c-7.8928833 0 -14.291321 -6.398449 -14.291321 -14.291336m-762.4409 85.74803l0 -28.58268l0 0c0 -7.892891 6.398445 -14.291336 14.291336 -14.291336c7.892891 0 14.291336 6.398445 14.291336 14.291336c0 15.785774 -12.796898 28.58268 -28.582672 28.58268c-15.785778 0 -28.58268 -12.7969055 -28.58268 -28.58268m57.16535 0l0 314.40945" fill-rule="evenodd"/></g></svg>