<svg version="1.1" viewBox="0.0 0.0 960.0 720.0" fill="none" stroke="none" stroke-linecap="square" stroke-miterlimit="10" xmlns:xlink="http://www.w3.org/1999/xlink" xmlns="http://www.w3.org/2000/svg"><clipPath id="p.0"><path d="m0 0l960.0 0l0 720.0l-960.0 0l0 -720.0z" clip-rule="nonzero"/></clipPath><g clip-path="url(#p.0)"><path fill="#000000" fill-opacity="0.0" d="m0 0l960.0 0l0 720.0l-960.0 0z" fill-rule="evenodd"/><path fill="#000000" fill-opacity="0.0" d="m453.98557 558.2782l0 0c0 -13.593994 11.647644 -24.614136 26.015747 -24.614136l0 0c6.899811 0 13.516998 2.5932617 18.395905 7.2092896c4.8789062 4.616089 7.6198425 10.87677 7.6198425 17.404846l0 0c0 13.594055 -11.647644 24.614197 -26.015747 24.614197l0 0c-14.368103 0 -26.015747 -11.020142 -26.015747 -24.614197z" fill-rule="evenodd"/><path stroke="#000000" stroke-width="1.0" stroke-linejoin="round" stroke-linecap="butt" d="m453.98557 558.2782l0 0c0 -13.593994 11.647644 -24.614136 26.015747 -24.614136l0 0c6.899811 0 13.516998 2.5932617 18.395905 7.2092896c4.8789062 4.616089 7.6198425 10.87677 7.6198425 17.404846l0 0c0 13.594055 -11.647644 24.614197 -26.015747 24.614197l0 0c-14.368103 0 -26.015747 -11.020142 -26.015747 -24.614197z" fill-rule="evenodd"/><path fill="#999999" d="m554.296 620.15485l-148.59055 0l29.71811 -123.75064l89.15436 0z" fill-rule="evenodd"/><path stroke="#999999" stroke-width="1.0" stroke-linejoin="round" stroke-linecap="butt" d="m554.296 620.15485l-148.59055 0l29.71811 -123.75064l89.15436 0z" fill-rule="evenodd"/><path fill="#000000" fill-opacity="0.0" d="m135.46457 113.203636l0 0c0 -42.328186 34.313766 -76.64195 76.64195 -76.64195l535.787 0c20.326721 0 39.82086 8.074753 54.19403 22.447906c14.373169 14.3731575 22.447937 33.867336 22.447937 54.19405l0 306.5586c0 42.328186 -34.31378 76.64197 -76.64197 76.64197l-535.787 0c-42.328186 0 -76.64195 -34.31378 -76.64195 -76.64197z" fill-rule="evenodd"/><path stroke="#000000" stroke-width="24.0" stroke-linejoin="round" stroke-linecap="butt" d="m135.46457 113.203636l0 0c0 -42.328186 34.313766 -76.64195 76.64195 -76.64195l535.787 0c20.326721 0 39.82086 8.074753 54.19403 22.447906c14.373169 14.3731575 22.447937 33.867336 22.447937 54.19405l0 306.5586c0 42.328186 -34.31378 76.64197 -76.64197 76.64197l-535.787 0c-42.328186 0 -76.64195 -34.31378 -76.64195 -76.64197z" fill-rule="evenodd"/></g></svg>