<svg version="1.1" viewBox="0.0 0.0 960.0 720.0" fill="none" stroke="none" stroke-linecap="square" stroke-miterlimit="10" xmlns:xlink="http://www.w3.org/1999/xlink" xmlns="http://www.w3.org/2000/svg"><clipPath id="p.0"><path d="m0 0l960.0 0l0 720.0l-960.0 0l0 -720.0z" clip-rule="nonzero"/></clipPath><g clip-path="url(#p.0)"><path fill="#000000" fill-opacity="0.0" d="m0 0l960.0 0l0 720.0l-960.0 0z" fill-rule="evenodd"/><path fill="#000000" fill-opacity="0.0" d="m213.74803 162.89159l0 0c0 -50.35314 40.81929 -91.172424 91.17244 -91.172424l364.67877 0l0 0c24.18042 0 47.370483 9.605637 64.46863 26.703781c17.098145 17.098152 26.703796 40.288208 26.703796 64.46864l0 564.3638c0 50.35315 -40.819275 91.172424 -91.172424 91.172424l-364.67877 0c-50.35315 0 -91.17244 -40.819275 -91.17244 -91.172424z" fill-rule="evenodd"/><path stroke="#000000" stroke-width="24.0" stroke-linejoin="round" stroke-linecap="butt" d="m213.74803 162.89159l0 0c0 -50.35314 40.81929 -91.172424 91.17244 -91.172424l364.67877 0l0 0c24.18042 0 47.370483 9.605637 64.46863 26.703781c17.098145 17.098152 26.703796 40.288208 26.703796 64.46864l0 564.3638c0 50.35315 -40.819275 91.172424 -91.172424 91.172424l-364.67877 0c-50.35315 0 -91.17244 -40.819275 -91.17244 -91.172424z" fill-rule="evenodd"/><path fill="#000000" d="m425.26505 105.46982l123.99051 0l0 0c16.243103 0 29.410767 11.647926 29.410767 26.016373c0 14.368454 -13.167664 26.016388 -29.410767 26.016388l-123.99051 0l0 0c-16.243073 0 -29.410706 -11.647934 -29.410706 -26.016388c0 -14.368446 13.167633 -26.016373 29.410706 -26.016373z" fill-rule="evenodd"/><path stroke="#000000" stroke-width="1.0" stroke-linejoin="round" stroke-linecap="butt" d="m425.26505 105.46982l123.99051 0l0 0c16.243103 0 29.410767 11.647926 29.410767 26.016373c0 14.368454 -13.167664 26.016388 -29.410767 26.016388l-123.99051 0l0 0c-16.243073 0 -29.410706 -11.647934 -29.410706 -26.016388c0 -14.368446 13.167633 -26.016373 29.410706 -26.016373z" fill-rule="evenodd"/><path fill="#073763" d="m417.65616 131.48557l0 0c0 -5.8272552 5.3514404 -10.551186 11.952759 -10.551186l0 0c6.6013184 0 11.952759 4.7239304 11.952759 10.551186l0 0c0 5.8272552 -5.3514404 10.551178 -11.952759 10.551178l0 0c-6.6013184 0 -11.952759 -4.7239227 -11.952759 -10.551178z" fill-rule="evenodd"/><path stroke="#000000" stroke-width="1.0" stroke-linejoin="round" stroke-linecap="butt" d="m417.65616 131.48557l0 0c0 -5.8272552 5.3514404 -10.551186 11.952759 -10.551186l0 0c6.6013184 0 11.952759 4.7239304 11.952759 10.551186l0 0c0 5.8272552 -5.3514404 10.551178 -11.952759 10.551178l0 0c-6.6013184 0 -11.952759 -4.7239227 -11.952759 -10.551178z" fill-rule="evenodd"/></g></svg>