<svg version="1.1" viewBox="0.0 0.0 460.95800524934384 457.01837270341207" fill="none" stroke="none" stroke-linecap="square" stroke-miterlimit="10" xmlns:xlink="http://www.w3.org/1999/xlink" xmlns="http://www.w3.org/2000/svg"><clipPath id="p.0"><path d="m0 0l460.958 0l0 457.01837l-460.958 0l0 -457.01837z" clip-rule="nonzero"/></clipPath><g clip-path="url(#p.0)"><path fill="#000000" fill-opacity="0.0" d="m0 0l460.958 0l0 457.01837l-460.958 0z" fill-rule="evenodd"/><path fill="#000000" fill-opacity="0.0" d="m52.677055 246.57454l109.20429 -16.36789l32.98468 -116.41951l12.993973 120.30582l104.911545 34.46585l-109.2043 16.36789l-32.98468 116.419495l-12.9939575 -120.30582z" fill-rule="evenodd"/><path stroke="#666666" stroke-width="12.0" stroke-linejoin="round" stroke-linecap="butt" d="m52.677055 246.57454l109.20429 -16.36789l32.98468 -116.41951l12.993973 120.30582l104.911545 34.46585l-109.2043 16.36789l-32.98468 116.419495l-12.9939575 -120.30582z" fill-rule="evenodd"/><path fill="#000000" fill-opacity="0.0" d="m283.83408 116.019554l54.07242 -16.91504l7.5181274 -61.49441l16.100372 59.824078l55.915375 9.136551l-54.07245 16.915047l-7.518097 61.4944l-16.100372 -59.824074z" fill-rule="evenodd"/><path stroke="#666666" stroke-width="8.0" stroke-linejoin="round" stroke-linecap="butt" d="m283.83408 116.019554l54.07242 -16.91504l7.5181274 -61.49441l16.100372 59.824078l55.915375 9.136551l-54.07245 16.915047l-7.518097 61.4944l-16.100372 -59.824074z" fill-rule="evenodd"/></g></svg>