<svg version="1.1" viewBox="0.0 0.0 428.68766404199476 806.8818897637796" fill="none" stroke="none" stroke-linecap="square" stroke-miterlimit="10" xmlns:xlink="http://www.w3.org/1999/xlink" xmlns="http://www.w3.org/2000/svg"><clipPath id="p.0"><path d="m0 0l428.68765 0l0 806.8819l-428.68765 0l0 -806.8819z" clip-rule="nonzero"/></clipPath><g clip-path="url(#p.0)"><path fill="#000000" fill-opacity="0.0" d="m0 0l428.68765 0l0 806.8819l-428.68765 0z" fill-rule="evenodd"/><defs><linearGradient id="p.1" gradientUnits="userSpaceOnUse" gradientTransform="matrix(18.042009457769545 0.0 0.0 18.042009457769545 0.0 0.0)" spreadMethod="pad" x1="-0.6902810919147354" y1="36.61190234557654" x2="12.072424558590797" y2="49.36444914034658"><stop offset="0.0" stop-color="#ffffff"/><stop offset="1.0" stop-color="#efefef"/></linearGradient></defs><path fill="url(#p.1)" d="m102.632545 660.46063l0 0c0 -63.560608 51.52604 -115.08661 115.08662 -115.08661l0 0c30.522873 0 59.79561 12.125183 81.378525 33.70807c21.582916 21.582947 33.7081 50.85565 33.7081 81.37854l0 0c0 63.560608 -51.52603 115.08661 -115.086624 115.08661l0 0c-63.560577 0 -115.08662 -51.526 -115.08662 -115.08661z" fill-rule="evenodd"/><path stroke="#000000" stroke-width="8.0" stroke-linejoin="round" stroke-linecap="butt" d="m102.632545 660.46063l0 0c0 -63.560608 51.52604 -115.08661 115.08662 -115.08661l0 0c30.522873 0 59.79561 12.125183 81.378525 33.70807c21.582916 21.582947 33.7081 50.85565 33.7081 81.37854l0 0c0 63.560608 -51.52603 115.08661 -115.086624 115.08661l0 0c-63.560577 0 -115.08662 -51.526 -115.08662 -115.08661z" fill-rule="evenodd"/><path fill="#ffffff" d="m125.656166 660.4619l0 0c0 -50.84497 41.21801 -92.06299 92.062996 -92.06299l0 0c24.416626 0 47.833206 9.699463 65.09837 26.96466c17.265137 17.265137 26.96463 40.681763 26.96463 65.09833l0 0c0 50.84503 -41.218018 92.06305 -92.063 92.06305l0 0c-50.844986 0 -92.062996 -41.218018 -92.062996 -92.06305z" fill-rule="evenodd"/><path stroke="#cccccc" stroke-width="4.0" stroke-linejoin="round" stroke-linecap="butt" d="m125.656166 660.4619l0 0c0 -50.84497 41.21801 -92.06299 92.062996 -92.06299l0 0c24.416626 0 47.833206 9.699463 65.09837 26.96466c17.265137 17.265137 26.96463 40.681763 26.96463 65.09833l0 0c0 50.84503 -41.218018 92.06305 -92.063 92.06305l0 0c-50.844986 0 -92.062996 -41.218018 -92.062996 -92.06305z" fill-rule="evenodd"/><path fill="#ffffff" d="m41.892387 142.47331l114.79876 0l0 -114.79877l122.056015 0l0 114.79877l114.79877 0l0 121.42607l-114.79877 0l0 114.79877l-122.056015 0l0 -114.79877l-114.79876 0z" fill-rule="evenodd"/><path stroke="#000000" stroke-width="8.0" stroke-linejoin="round" stroke-linecap="butt" d="m41.892387 142.47331l114.79876 0l0 -114.79877l122.056015 0l0 114.79877l114.79877 0l0 121.42607l-114.79877 0l0 114.79877l-122.056015 0l0 -114.79877l-114.79876 0z" fill-rule="evenodd"/></g></svg>